# xmcd
#
# Track frame offsets:
#	150
#	11510
#	23506
#	32443
#	43072
#	52790
#	62920
#	73390
#	84998
#	101492
#
# Disc length: 1586 seconds
#
# Revision: 1
# Processed by: cddbd v1.5.1PL0 Copyright (c) Steve Scherf et al.
# Submitted via: audiograbber 1.83.01
#
DISCID=7406300a
DTITLE=Various Artist - Holiday Star
DYEAR=2000
DGENRE=Country
TTITLE0=Skeeter Davis - Santa Claus Is Coming To Town
TTITLE1=Jack Greene - Hark! The Herald Angels Sing
TTITLE2=Donna Fargo - Rockin' Around The Christmas Tree
TTITLE3=Jeannie C. Riley - Away In A Manger
TTITLE4=Joe Stampley - Jingle Bell Rock
TTITLE5=Gene Autry - Here Comes Santa Claus
TTITLE6=Eddy Raven - Silent Night
TTITLE7=Donna Fargo - Jingle Bells
TTITLE8=Jack Greene - O Come All Ye Faithful
TTITLE9=Jeannie C. Riley - Joy To The World
EXTD=Christmas Album
EXTT0=
EXTT1=
EXTT2=
EXTT3=
EXTT4=
EXTT5=
EXTT6=
EXTT7=
EXTT8=
EXTT9=
PLAYORDER=
